<svg width="20" height="20" viewBox="0 0 20 20" fill="#fff" xmlns="http://www.w3.org/2000/svg">
<path d="M12.8012 10.6054H11.1653C10.193 10.6054 9.33672 10.3267 8.55034 9.75527C7.39143 8.91314 5.89473 8.69534 4.54661 9.16944C4.06967 9.33716 3.62109 9.58921 3.22353 9.91708V15.7246H9.89208C10.5294 15.7246 11.0819 15.5777 11.6342 15.259L18.5855 11.2456C19.3339 10.8369 18.4901 9.31306 17.725 9.7522C15.4714 11.0533 13.2176 12.3535 10.9641 13.6544C10.5478 13.8948 10.1264 14.0096 9.64547 14.0096H8.88176C8.24703 14.0096 8.24703 13.0444 8.88176 13.0444H9.64547C9.95421 13.0444 10.2176 12.9759 10.4852 12.8212L12.748 11.5149C13.125 11.2671 13.3284 10.6054 12.8012 10.6054ZM11.3463 4.15066C11.3463 3.8842 11.5622 3.66806 11.8286 3.66806C12.0953 3.66806 12.3112 3.8842 12.3112 4.15066V4.31554C12.7017 4.40673 13.0506 4.60586 13.3246 4.87988C13.3346 4.8898 13.3438 4.89996 13.3525 4.91035C13.7189 5.29067 13.9445 5.80752 13.9445 6.37611C13.9445 6.64257 13.7283 6.85871 13.4619 6.85871C13.1954 6.85871 12.9793 6.64257 12.9793 6.37611C12.9793 6.06831 12.8593 5.78886 12.6637 5.5824L12.6422 5.56232C12.547 5.46713 12.435 5.38846 12.3112 5.33106V7.58203C12.7017 7.67297 13.0506 7.87234 13.3246 8.14636C13.7075 8.52904 13.9445 9.05818 13.9445 9.64212C13.9445 9.78834 13.9284 9.93456 13.8979 10.0789C13.889 10.1212 13.8788 10.163 13.8677 10.2041C13.9542 10.3371 14.0151 10.4859 14.0496 10.643C14.0576 10.6784 14.064 10.7146 14.069 10.7512L16.461 9.37023C16.5165 9.18054 16.5609 8.98637 16.593 8.78865C16.6329 8.54109 16.6539 8.28077 16.6539 8.00912C16.6539 6.67682 16.1139 5.47043 15.2406 4.59736C14.3675 3.72404 13.1612 3.18404 11.8286 3.18404C10.4963 3.18404 9.28995 3.72404 8.41687 4.59736C7.54356 5.47043 7.00356 6.67682 7.00356 8.00912L7.00379 8.05778C7.76301 8.20565 8.48987 8.52006 9.11586 8.97479C9.33838 9.1366 9.56468 9.26771 9.79759 9.36928C10.0544 8.99582 10.647 9.15267 10.677 9.61023C10.8344 9.63031 10.9969 9.64047 11.1653 9.64047H11.3463V8.43644C10.9558 8.34526 10.6069 8.14612 10.3329 7.87211C9.94996 7.48919 9.71303 6.96029 9.71303 6.37611C9.71303 5.79193 9.94996 5.26279 10.3329 4.87988C10.6069 4.60586 10.9558 4.40673 11.3463 4.31554V4.15066ZM12.3112 8.59755V9.64047H12.8012C12.8623 9.64047 12.9219 9.64425 12.9793 9.65133V9.64212C12.9793 9.32464 12.8505 9.03692 12.6422 8.82881C12.547 8.73337 12.435 8.65495 12.3112 8.59755ZM11.3463 7.42069V5.33106C11.2225 5.38846 11.1105 5.46713 11.0153 5.56232C10.807 5.77044 10.6782 6.05839 10.6782 6.37611C10.6782 6.69383 10.807 6.98155 11.0153 7.18966C11.1105 7.28486 11.2225 7.36352 11.3463 7.42069ZM6.03882 7.96022C6.05182 6.3806 6.69741 4.95193 7.73443 3.91491C8.78231 2.86703 10.2299 2.21883 11.8286 2.21883C13.4276 2.21883 14.8752 2.86703 15.9231 3.91491C16.971 4.96256 17.6192 6.41013 17.6192 8.00912C17.6192 8.26424 17.6014 8.51959 17.5674 8.77377C19.2519 8.22597 20.8431 10.9624 19.0681 12.0788L12.1168 16.0922C11.4587 16.4956 10.6608 16.6898 9.89208 16.6898H3.22353V17.2986C3.22353 17.565 3.00738 17.7812 2.74092 17.7812H0.636655C0.370196 17.7812 0.154053 17.565 0.154053 17.2986V8.60652C0.154053 8.34006 0.370196 8.12416 0.636655 8.12416H2.74092C3.00738 8.12416 3.22353 8.34006 3.22353 8.60652V8.7381C3.54195 8.54392 3.87928 8.38424 4.22983 8.26093C4.80716 8.05801 5.41898 7.95455 6.03882 7.96022ZM1.11926 16.816H2.25832C2.25832 14.2404 2.25832 11.6649 2.25832 9.08912H1.11926V16.816Z"/>
</svg>
