<svg width="20" height="20" viewBox="0 0 20 20" fill="#fff" xmlns="http://www.w3.org/2000/svg">
<path d="M16.0833 6.41667C16.25 6.58333 16.4167 6.66667 16.6667 6.66667C16.9167 6.66667 17.0833 6.58333 17.25 6.41667C17.5833 6.08333 17.5833 5.58333 17.25 5.25L15.5833 3.58333C15.25 3.25 14.75 3.25 14.4167 3.58333C14.0833 3.91667 14.0833 4.41667 14.4167 4.75L14.6667 5L14.0833 5.58333C13.1667 4.83333 12.0833 4.41667 10.8333 4.25V3.33333C10.8333 2.83333 10.5 2.5 10 2.5C9.50001 2.5 9.16668 2.83333 9.16668 3.33333V4.25C5.91668 4.66667 3.33334 7.41667 3.33334 10.8333C3.33334 14.5 6.33334 17.5 10 17.5C13.6667 17.5 16.6667 14.5 16.6667 10.8333C16.6667 9.33333 16.1667 7.91667 15.25 6.75L15.8333 6.16667L16.0833 6.41667ZM10 15.8333C7.25001 15.8333 5.00001 13.5833 5.00001 10.8333C5.00001 8.08333 7.25001 5.83333 10 5.83333C12.75 5.83333 15 8.08333 15 10.8333C15 13.5833 12.75 15.8333 10 15.8333Z"/>
<path d="M10 7.5C9.50002 7.5 9.16669 7.83333 9.16669 8.33333V10.8333C9.16669 11.3333 9.50002 11.6667 10 11.6667C10.5 11.6667 10.8334 11.3333 10.8334 10.8333V8.33333C10.8334 7.83333 10.5 7.5 10 7.5Z" />
</svg>
