<svg width="20" height="20" viewBox="0 0 20 20" fill="#fff" xmlns="http://www.w3.org/2000/svg">
<g clip-path="url(#clip0_1_37)">
<path d="M12.0833 1.66667C12.5755 1.6665 13.0598 1.7909 13.491 2.02828C13.9221 2.26566 14.2862 2.60829 14.5493 3.02428C14.8124 3.44027 14.966 3.91607 14.9957 4.40738C15.0254 4.89869 14.9302 5.38952 14.7192 5.83417L17.5 5.83334C17.721 5.83334 17.933 5.92113 18.0892 6.07741C18.2455 6.23369 18.3333 6.44566 18.3333 6.66667V10C18.3333 10.221 18.2455 10.433 18.0892 10.5893C17.933 10.7455 17.721 10.8333 17.5 10.8333H16.6667V17.5C16.6667 17.721 16.5789 17.933 16.4226 18.0893C16.2663 18.2455 16.0543 18.3333 15.8333 18.3333H4.16666C3.94564 18.3333 3.73368 18.2455 3.5774 18.0893C3.42112 17.933 3.33332 17.721 3.33332 17.5V10.8333H2.49999C2.27898 10.8333 2.06701 10.7455 1.91073 10.5893C1.75445 10.433 1.66666 10.221 1.66666 10V6.66667C1.66666 6.44566 1.75445 6.23369 1.91073 6.07741C2.06701 5.92113 2.27898 5.83334 2.49999 5.83334L5.28082 5.83417C4.98395 5.21056 4.91801 4.50184 5.09474 3.83417C5.27147 3.1665 5.6794 2.58321 6.24591 2.18813C6.81241 1.79305 7.50074 1.61183 8.18835 1.67673C8.87596 1.74162 9.51823 2.04842 10.0008 2.5425C10.2717 2.26461 10.5956 2.0439 10.9533 1.89346C11.311 1.74302 11.6953 1.6659 12.0833 1.66667ZM15 10.8333H4.99999V16.6667H15V10.8333ZM16.6667 7.5H3.33332V9.16667H16.6667V7.5ZM7.91666 3.33334C7.59564 3.3335 7.28699 3.45715 7.05467 3.67868C6.82234 3.9002 6.68415 4.20262 6.66872 4.52327C6.65329 4.84391 6.76182 5.1582 6.9718 5.401C7.18179 5.64381 7.47714 5.79653 7.79666 5.8275L7.91666 5.83334H9.16666V4.58334C9.16664 4.2726 9.05089 3.97301 8.84197 3.74299C8.63306 3.51296 8.34596 3.369 8.03666 3.33917L7.91666 3.33334ZM12.0833 3.33334L11.9633 3.33917C11.6745 3.36684 11.4042 3.49415 11.199 3.69926C10.9937 3.90437 10.8662 4.1745 10.8383 4.46334L10.8333 4.58334V5.83334H12.0833L12.2033 5.8275C12.5125 5.79753 12.7995 5.6535 13.0082 5.42349C13.217 5.19348 13.3327 4.89397 13.3327 4.58334C13.3327 4.2727 13.217 3.97319 13.0082 3.74318C12.7995 3.51317 12.5125 3.36915 12.2033 3.33917L12.0833 3.33334Z" />
</g>
<defs>
<clipPath id="clip0_1_37">
<rect width="20" height="20" />
</clipPath>
</defs>
</svg>
