<svg width="20" height="20" viewBox="0 0 20 20" fill="#fff" xmlns="http://www.w3.org/2000/svg">
<path d="M10 8.75C9.17592 8.75 8.37034 8.50563 7.68514 8.04779C6.99993 7.58995 6.46588 6.93921 6.15051 6.17785C5.83515 5.41649 5.75263 4.57871 5.91341 3.77046C6.07418 2.9622 6.47101 2.21977 7.05373 1.63705C7.63645 1.05434 8.37888 0.657499 9.18714 0.496727C9.99539 0.335956 10.8332 0.418469 11.5945 0.733835C12.3559 1.0492 13.0066 1.58325 13.4645 2.26846C13.9223 2.95366 14.1667 3.75924 14.1667 4.58333C14.1667 5.6884 13.7277 6.74821 12.9463 7.52961C12.1649 8.31101 11.1051 8.75 10 8.75ZM10 2.08333C9.50556 2.08333 9.02221 2.22995 8.61109 2.50466C8.19996 2.77936 7.87953 3.16981 7.69031 3.62662C7.50109 4.08344 7.45159 4.58611 7.54805 5.07106C7.64451 5.55601 7.88261 6.00147 8.23224 6.3511C8.58188 6.70073 9.02733 6.93883 9.51229 7.0353C9.99724 7.13176 10.4999 7.08225 10.9567 6.89303C11.4135 6.70381 11.804 6.38338 12.0787 5.97226C12.3534 5.56114 12.5 5.07779 12.5 4.58333C12.5 3.92029 12.2366 3.28441 11.7678 2.81557C11.2989 2.34672 10.6631 2.08333 10 2.08333Z" />
<path d="M17.5 19.5833H2.49999C2.27898 19.5833 2.06701 19.4955 1.91073 19.3393C1.75445 19.183 1.66666 18.971 1.66666 18.75V16.25C1.66666 14.4819 2.36904 12.7862 3.61928 11.536C4.86952 10.2857 6.56521 9.58333 8.33332 9.58333H11.6667C13.4348 9.58333 15.1305 10.2857 16.3807 11.536C17.6309 12.7862 18.3333 14.4819 18.3333 16.25V18.75C18.3333 18.971 18.2455 19.183 18.0892 19.3393C17.933 19.4955 17.721 19.5833 17.5 19.5833ZM3.33332 17.9167H16.6667V16.25C16.6667 14.9239 16.1399 13.6521 15.2022 12.7145C14.2645 11.7768 12.9927 11.25 11.6667 11.25H8.33332C7.00724 11.25 5.73547 11.7768 4.79779 12.7145C3.86011 13.6521 3.33332 14.9239 3.33332 16.25V17.9167Z" />
</svg>
