<svg width="20" height="20" viewBox="0 0 20 20" fill="#fff" xmlns="http://www.w3.org/2000/svg">
<path d="M9.395 13.8675C9.61 13.2612 11.25 11.1725 11.25 7.5C11.25 5.42875 9.57125 3.75 7.5 3.75C5.42875 3.75 3.75 5.42875 3.75 7.5C3.75 11.1725 5.39125 13.2612 5.605 13.8675C3.69125 14.0425 0 15.2638 0 17.5C0 18.0275 0.42 18.75 1.25 18.75H13.75C14.58 18.75 15 18.0275 15 17.5C15 15.2638 11.3088 14.0425 9.395 13.8675ZM15.81 10.0487C16.1112 9.13875 17.5 6.59125 17.5 5C17.5 2.92875 15.82 1.25 13.75 1.25C12.7 1.25 11.7513 1.6825 11.0713 2.3775C12.6875 3.51 13.75 5.3825 13.75 7.5C13.75 9.40125 13.3787 10.9738 12.9437 12.185C13.9125 12.5688 14.8525 13.0887 15.6263 13.75H18.75C19.4725 13.75 20 13.1838 20 12.5C20 10.9275 16.9725 10.2637 15.81 10.0487Z" />
</svg>
