<svg width="20" height="20" viewBox="0 0 20 20" fill="#fff" xmlns="http://www.w3.org/2000/svg">
<g clip-path="url(#clip0_1_30)">
<path d="M17.0833 0.254181H2.91667C2.14547 0.261779 1.40801 0.57151 0.862672 1.11685C0.317329 1.6622 0.00759852 2.39965 0 3.17085L0 14.0042C0.0293569 14.8017 0.312353 15.569 0.807833 16.1945C1.30331 16.8201 1.98544 17.2713 2.755 17.4825L12.0542 19.6667C12.4081 19.7583 12.7781 19.7692 13.1368 19.6987C13.4955 19.6282 13.8338 19.478 14.1267 19.2592C14.4099 19.0273 14.636 18.7334 14.7874 18.4002C14.9388 18.067 15.0116 17.7034 15 17.3375V9.26085C14.9987 8.48581 14.744 7.73247 14.2747 7.11563C13.8055 6.4988 13.1474 6.0523 12.4008 5.84418L3.38 3.35668C3.30088 3.33479 3.22684 3.29754 3.16212 3.24704C3.0974 3.19654 3.04325 3.13379 3.00278 3.06236C2.96231 2.99094 2.93631 2.91224 2.92625 2.83077C2.91619 2.74929 2.92228 2.66664 2.94417 2.58751C2.96605 2.50839 3.00331 2.43436 3.05381 2.36963C3.10431 2.30491 3.16706 2.25077 3.23849 2.2103C3.30991 2.16983 3.38861 2.14382 3.47008 2.13376C3.55155 2.12371 3.63421 2.12979 3.71333 2.15168L6.65833 2.96418H6.66833H17.0833C17.2491 2.96418 17.4081 3.03003 17.5253 3.14724C17.6425 3.26445 17.7083 3.42342 17.7083 3.58918C17.7083 3.75494 17.6425 3.91391 17.5253 4.03112C17.4081 4.14833 17.2491 4.21418 17.0833 4.21418H12.7208C12.6704 4.21407 12.6216 4.23228 12.5836 4.26541C12.5455 4.29855 12.5208 4.34436 12.514 4.39435C12.5072 4.44433 12.5187 4.4951 12.5465 4.53721C12.5743 4.57933 12.6164 4.60993 12.665 4.62335L12.7367 4.64335C13.686 4.907 14.5303 5.45841 15.1533 6.22168C15.1731 6.24534 15.1979 6.26438 15.2258 6.27748C15.2537 6.29058 15.2842 6.29742 15.315 6.29751H17.0833C17.2491 6.29751 17.4081 6.36336 17.5253 6.48057C17.6425 6.59778 17.7083 6.75675 17.7083 6.92251C17.7083 7.08827 17.6425 7.24725 17.5253 7.36446C17.4081 7.48167 17.2491 7.54751 17.0833 7.54751H16.2183C16.1854 7.54731 16.1529 7.55495 16.1235 7.5698C16.0941 7.58465 16.0687 7.60628 16.0493 7.6329C16.0299 7.65953 16.0171 7.69039 16.0121 7.72292C16.007 7.75546 16.0097 7.78874 16.02 7.82001C16.1732 8.28559 16.2522 8.77238 16.2542 9.26251V15.0475C16.2542 15.1028 16.2761 15.1558 16.3152 15.1948C16.3543 15.2339 16.4072 15.2558 16.4625 15.2558H17.0833C17.8569 15.2558 18.5987 14.9486 19.1457 14.4016C19.6927 13.8546 20 13.1127 20 12.3392V3.17251C20.0002 2.78935 19.9249 2.4099 19.7785 2.05584C19.632 1.70178 19.4172 1.38006 19.1463 1.10904C18.8755 0.838028 18.5539 0.623039 18.1999 0.476358C17.8459 0.329678 17.4665 0.254181 17.0833 0.254181ZM12.9167 12.7542C12.9167 13.0838 12.8189 13.406 12.6358 13.6801C12.4526 13.9542 12.1923 14.1678 11.8878 14.294C11.5833 14.4201 11.2482 14.4531 10.9248 14.3888C10.6015 14.3245 10.3046 14.1658 10.0715 13.9327C9.8384 13.6996 9.67967 13.4026 9.61536 13.0793C9.55105 12.756 9.58405 12.4209 9.7102 12.1164C9.83635 11.8118 10.05 11.5515 10.324 11.3684C10.5981 11.1853 10.9204 11.0875 11.25 11.0875C11.692 11.0875 12.1159 11.2631 12.4285 11.5757C12.7411 11.8882 12.9167 12.3122 12.9167 12.7542Z" />
</g>
<defs>
<clipPath id="clip0_1_30">
<rect width="20" height="20" />
</clipPath>
</defs>
</svg>
