<svg width="20" height="20" viewBox="0 0 20 20" fill="#fff" xmlns="http://www.w3.org/2000/svg">
<path d="M15.8333 3.33334H4.16666C3.50362 3.33334 2.86773 3.59673 2.39889 4.06557C1.93005 4.53441 1.66666 5.17029 1.66666 5.83334V14.1667C1.66666 14.8297 1.93005 15.4656 2.39889 15.9344C2.86773 16.4033 3.50362 16.6667 4.16666 16.6667H15.8333C16.4964 16.6667 17.1322 16.4033 17.6011 15.9344C18.0699 15.4656 18.3333 14.8297 18.3333 14.1667V5.83334C18.3333 5.17029 18.0699 4.53441 17.6011 4.06557C17.1322 3.59673 16.4964 3.33334 15.8333 3.33334ZM16.6667 11.9167H14.1667C13.6583 11.9167 13.1708 11.7147 12.8114 11.3553C12.4519 10.9958 12.25 10.5083 12.25 10C12.25 9.49167 12.4519 9.00416 12.8114 8.64471C13.1708 8.28527 13.6583 8.08334 14.1667 8.08334H16.6667V11.9167ZM16.6667 6.66667H14.1667C13.2826 6.66667 12.4348 7.01786 11.8096 7.64298C11.1845 8.2681 10.8333 9.11595 10.8333 10C10.8333 10.8841 11.1845 11.7319 11.8096 12.357C12.4348 12.9821 13.2826 13.3333 14.1667 13.3333H16.6667V14.1667C16.6667 14.3877 16.5789 14.5996 16.4226 14.7559C16.2663 14.9122 16.0543 15 15.8333 15H4.16666C3.94564 15 3.73368 14.9122 3.5774 14.7559C3.42112 14.5996 3.33332 14.3877 3.33332 14.1667V5.83334C3.33332 5.61232 3.42112 5.40036 3.5774 5.24408C3.73368 5.0878 3.94564 5 4.16666 5H15.8333C16.0543 5 16.2663 5.0878 16.4226 5.24408C16.5789 5.40036 16.6667 5.61232 16.6667 5.83334V6.66667ZM13.3333 10C13.3333 10.1648 13.3822 10.3259 13.4738 10.463C13.5653 10.6 13.6955 10.7068 13.8478 10.7699C14 10.833 14.1676 10.8495 14.3292 10.8173C14.4909 10.7852 14.6394 10.7058 14.7559 10.5893C14.8725 10.4727 14.9518 10.3242 14.984 10.1626C15.0161 10.0009 14.9996 9.83337 14.9366 9.6811C14.8735 9.52883 14.7667 9.39868 14.6296 9.30711C14.4926 9.21554 14.3315 9.16667 14.1667 9.16667C13.9456 9.16667 13.7337 9.25447 13.5774 9.41075C13.4211 9.56703 13.3333 9.77899 13.3333 10Z" />
</svg>
